<svg width="44" height="49" viewBox="0 0 44 49" fill="none" xmlns="http://www.w3.org/2000/svg">
<path d="M21.9969 49C21.3333 49 20.6717 48.8285 20.0908 48.4957L14.021 44.9494C13.1154 44.4492 13.5579 44.2715 13.8556 44.1674C15.065 43.753 15.3089 43.657 16.601 42.9343C16.7354 42.8587 16.9132 42.8873 17.0517 42.969L21.7157 45.7027C21.8023 45.7481 21.8989 45.7719 21.9969 45.7719C22.0949 45.7719 22.1915 45.7481 22.2781 45.7027L40.4606 35.3394C40.5454 35.2889 40.6155 35.2176 40.664 35.1325C40.7126 35.0473 40.7379 34.9512 40.7377 34.8534V14.1308C40.7375 14.0313 40.7114 13.9335 40.6618 13.847C40.6121 13.7604 40.5407 13.688 40.4544 13.6367L22.2801 3.28145C22.1945 3.23425 22.0981 3.20947 22 3.20947C21.9019 3.20947 21.8055 3.23425 21.7199 3.28145L3.54969 13.6387C3.46307 13.6895 3.39114 13.7614 3.34082 13.8476C3.29049 13.9338 3.26346 14.0313 3.26232 14.1308V34.8534C3.26272 34.9514 3.28956 35.0475 3.34007 35.1319C3.39058 35.2162 3.46293 35.2857 3.54969 35.3332L8.53 38.1752C11.2321 39.5104 12.888 37.9384 12.888 36.3581V15.8988C12.888 15.6089 13.1237 15.3823 13.4173 15.3823H15.7224C16.0098 15.3823 16.2496 15.6109 16.2496 15.8988V36.3581C16.2496 39.9208 14.2856 41.9625 10.8661 41.9625C9.81591 41.9625 8.98689 41.9625 6.67763 40.8375L1.90612 38.1282C1.32614 37.7947 0.844891 37.3168 0.510419 36.7421C0.175947 36.1675 -4.91381e-05 35.5162 1.0291e-08 34.8534V14.1308C1.0291e-08 12.7853 0.729784 11.5277 1.90612 10.858L20.0887 0.482355C20.6744 0.165876 21.3313 0 21.999 0C22.6666 0 23.3235 0.165876 23.9092 0.482355L42.0897 10.858C43.2681 11.5297 44 12.7853 44 14.1308V34.8534C43.9988 35.5165 43.8218 36.1677 43.4867 36.7422C43.1516 37.3167 42.6699 37.7946 42.0897 38.1282L23.9092 48.4957C23.3304 48.8285 22.6709 49 21.9969 49ZM36.6773 28.5693C36.6773 24.6901 34.0228 23.6571 28.4347 22.9282C22.7887 22.1912 22.214 21.8094 22.214 20.5048C22.214 19.4268 22.6998 17.9874 26.8821 17.9874C30.6179 17.9874 31.9947 18.7816 32.5612 21.2683C32.587 21.3832 32.6516 21.486 32.7444 21.5599C32.8372 21.6337 32.9527 21.6742 33.0718 21.6746H35.4307C35.5028 21.6739 35.5739 21.6589 35.64 21.6305C35.7061 21.6021 35.7656 21.5609 35.8152 21.5093C35.8652 21.4557 35.9033 21.3925 35.9271 21.3236C35.951 21.2547 35.9601 21.1816 35.9538 21.1091C35.5878 16.8257 32.7059 14.829 26.8821 14.829C21.6971 14.829 18.6043 16.9891 18.6043 20.613C18.6043 24.5431 21.6806 25.6293 26.6568 26.1152C32.6108 26.691 33.0718 27.5505 33.0718 28.7061C33.0718 30.713 31.4407 31.5684 27.6098 31.5684C22.799 31.5684 21.7405 30.3761 21.385 28.0119C21.3652 27.8891 21.3016 27.7773 21.2057 27.6968C21.1097 27.6163 20.9878 27.5724 20.8619 27.5729H18.5113C18.4424 27.5724 18.374 27.5854 18.3102 27.6111C18.2464 27.6369 18.1883 27.6749 18.1395 27.7229C18.0907 27.7709 18.052 27.8281 18.0256 27.891C17.9993 27.9539 17.9859 28.0214 17.9862 28.0895C17.9862 31.1152 19.6525 34.7207 27.6098 34.7207C33.3737 34.7228 36.6773 32.4831 36.6773 28.5693Z" fill="white"/>
</svg>
