<svg width="53" height="47" viewBox="0 0 53 47" fill="none" xmlns="http://www.w3.org/2000/svg">
<path d="M43.0081 15.1554L41.3252 14.5945C41.3252 14.2205 41.5122 13.8465 41.5122 13.4725C42.8211 7.30177 41.8862 2.25299 39.0813 0.570064C36.2764 -0.925871 31.7886 0.570065 27.3008 4.49689C26.9268 4.87088 26.3659 5.24486 25.9919 5.61884C25.6179 5.43185 25.4309 5.05787 25.0569 4.87088C20.5691 0.757056 15.8943 -0.92587 13.0894 0.757056C10.2846 2.25299 9.53658 7.11478 10.6585 12.9115C10.8455 13.4725 10.8455 14.0335 11.0325 14.5945C10.2846 14.7814 9.72358 14.9684 9.1626 15.1554C3.55285 17.0254 0 20.2042 0 23.1961C0 26.3749 3.73984 29.7408 9.53658 31.6107C9.91057 31.7977 10.4715 31.9847 11.0325 31.9847C10.8455 32.5457 10.6585 33.2936 10.6585 33.8546C9.53658 39.6514 10.4715 44.1392 13.0894 45.8221C15.8943 47.505 20.5691 45.8221 25.2439 41.7083C25.6179 41.3343 25.9919 40.9603 26.3659 40.7733C26.7398 41.1473 27.3008 41.7083 27.8618 42.0823C32.3496 46.0091 36.6504 47.505 39.4553 45.8221C42.2602 44.1392 43.1951 39.2774 42.0732 33.2936C42.0732 32.9197 41.8862 32.3587 41.6992 31.7977C42.0732 31.6107 42.4472 31.6107 42.6341 31.4237C48.6179 29.3668 52.5447 26.188 52.5447 23.0091C52.3577 20.2042 48.6179 17.2123 43.0081 15.1554ZM28.9837 6.36681C32.9106 3.00096 36.4634 1.69202 38.1463 2.62698C39.8293 3.56193 40.5772 7.67576 39.4553 13.0985C39.4553 13.4725 39.2683 13.8465 39.2683 14.2205C37.0244 13.6595 34.5935 13.2855 32.3496 13.0985C31.0406 11.2286 29.5447 9.35868 27.8618 7.48876L28.9837 6.36681ZM15.5203 26.001C16.0813 26.9359 16.4553 27.8709 17.0163 28.8058C17.5772 29.7408 18.1382 30.6758 18.6992 31.4237C17.0163 31.2367 15.5203 31.0497 13.8374 30.6758C14.2114 29.1798 14.7724 27.6839 15.5203 26.001ZM15.5203 20.7652C14.7724 19.2693 14.3984 17.7733 13.8374 16.2774C15.3333 15.9034 17.0163 15.7164 18.5122 15.5294C17.9512 16.4644 17.3902 17.2123 16.8293 18.1473C16.4553 18.8953 15.8943 19.8302 15.5203 20.7652ZM16.6423 23.3831C17.3902 21.8871 18.1382 20.5782 18.8862 19.0823C19.6341 17.7733 20.5691 16.2774 21.5041 14.9684C23 14.7814 24.6829 14.7814 26.3659 14.7814C28.0488 14.7814 29.5447 14.7814 31.2276 14.9684C32.1626 16.2774 32.9106 17.5863 33.6585 19.0823C34.4065 20.3912 35.1545 21.8871 35.9024 23.3831C35.1545 24.879 34.4065 26.188 33.6585 27.6839C32.9106 28.9928 31.9756 30.4888 31.2276 31.7977C29.7317 31.9847 28.0488 31.9847 26.3659 31.9847C24.6829 31.9847 23.187 31.9847 21.6911 31.7977C20.7561 30.4888 20.0081 29.1798 19.0732 27.6839C18.1382 26.188 17.3902 24.879 16.6423 23.3831ZM35.3415 28.8058C35.9024 27.8709 36.4634 26.9359 36.8374 26.001C37.5854 27.4969 38.1463 28.9928 38.5203 30.6758C36.8374 31.0497 35.3415 31.2367 33.6585 31.4237C34.4065 30.4888 34.9675 29.5538 35.3415 28.8058ZM36.8374 20.7652C36.2764 19.8302 35.9024 18.8953 35.3415 17.9603C34.7805 17.0254 34.2195 16.2774 33.8455 15.3424C35.5285 15.5294 37.0244 15.9034 38.7073 16.0904C38.1463 17.7733 37.5854 19.2693 36.8374 20.7652ZM26.1789 8.9847C27.3008 10.1067 28.2358 11.4156 29.1707 12.7245C27.1138 12.5375 25.0569 12.5375 23 12.7245C24.122 11.4156 25.2439 10.1067 26.1789 8.9847ZM14.2114 2.62698C15.8943 1.69202 19.8211 3.00096 23.935 6.7408L24.6829 7.48876C23 9.17169 21.5041 11.0416 20.1951 13.0985C17.7642 13.2855 15.5203 13.6595 13.2764 14.2205C13.0894 13.6595 13.0894 13.0985 12.9024 12.5375C11.7805 7.48876 12.5285 3.56193 14.2114 2.62698ZM11.5935 30.1148C11.2195 29.9278 10.6585 29.9278 10.2846 29.7408C7.66667 28.8058 5.60976 27.6839 4.11382 26.5619C2.80488 25.44 2.2439 24.318 2.2439 23.3831C2.2439 21.5132 5.04878 19.0823 9.91057 17.3993C10.4715 17.2123 11.0325 17.0254 11.7805 16.8384C12.3415 19.0823 13.0894 21.3262 14.2114 23.3831C13.0894 25.627 12.3415 27.8709 11.5935 30.1148ZM23.748 40.3993C21.6911 42.2693 19.6341 43.3912 17.9512 44.1392C16.2683 44.7001 15.1463 44.7001 14.2114 44.3262C12.5285 43.3912 11.7805 39.6514 12.7154 34.7896C12.9024 34.0416 13.0894 33.4806 13.0894 32.7327C15.3333 33.2936 17.7642 33.6676 20.1951 33.6676C21.5041 35.5375 23 37.4075 24.6829 39.2774C24.3089 39.6514 24.122 40.0253 23.748 40.3993ZM26.1789 37.7814C25.0569 36.6595 24.122 35.3506 23 34.0416H29.1707C28.4228 35.3506 27.3008 36.6595 26.1789 37.7814ZM39.8293 40.9603C39.4553 42.6432 38.8943 43.7652 38.1463 44.1392C36.4634 45.0741 32.9106 43.7652 29.1707 40.5863C28.7967 40.2123 28.2358 39.8384 27.8618 39.4644C29.3577 37.7814 30.8537 35.9115 32.1626 33.8546C34.5935 33.6676 36.8374 33.2936 39.2683 32.7327C39.4553 33.1066 39.4553 33.6676 39.6423 34.0416C40.2033 36.6595 40.2033 39.0904 39.8293 40.9603ZM41.6992 29.7408C41.3252 29.7408 41.1382 29.9278 40.7642 29.9278C40.0163 27.6839 39.0813 25.44 38.1463 23.1961C39.0813 21.1392 40.0163 18.8953 40.7642 16.6514C41.3252 16.8384 41.8862 17.0253 42.2602 17.2123C47.122 18.8953 50.1138 21.3262 50.1138 23.1961C50.1138 25.44 46.935 28.0579 41.6992 29.7408Z" fill="white"/>
<path d="M26.1789 28.0577C27.1139 28.0577 28.0488 27.8707 28.7968 27.3097C29.5448 26.7487 30.1058 26.0008 30.4797 25.2528C30.8537 24.3178 30.8537 23.3829 30.6667 22.4479C30.4797 21.5129 30.1058 20.765 29.3578 20.017C28.7968 19.269 27.8619 18.8951 26.9269 18.7081C25.9919 18.5211 25.057 18.7081 24.122 18.8951C23.1871 19.269 22.4391 19.83 22.0651 20.578C21.5041 21.326 21.3171 22.2609 21.3171 23.1959C21.3171 23.7568 21.5041 24.5048 21.6911 25.0658C21.8781 25.6268 22.2521 26.1877 22.6261 26.5617C23.0001 26.9357 23.561 27.3097 24.122 27.4967C24.87 27.8707 25.618 28.0577 26.1789 28.0577Z" fill="white"/>
</svg>
