<svg width="44" height="29" viewBox="0 0 44 29" fill="none" xmlns="http://www.w3.org/2000/svg">
<path d="M9.89844 28H12.5742V2.82422H22.2031V0.402344H0.269531V2.82422H9.89844V28ZM34.9375 28.2539C39.9375 28.2539 43.8047 25.1484 43.8047 20.4219C43.8047 11.3203 29.625 13.5859 29.625 7.02344C29.625 4.40625 31.793 2.49219 34.6641 2.49219C37.2227 2.49219 39.0781 3.625 40.3477 5.92969L42.5742 4.54297C40.8164 1.45703 38.1406 0.109375 34.7617 0.109375C30.4258 0.109375 26.9492 2.84375 26.9492 7.14062C26.9492 15.7539 41.1289 13.3906 41.1289 20.6367C41.1289 23.625 38.707 25.8516 34.9766 25.8516C31.2852 25.8516 28.5117 23.8398 27.9648 20.0117L25.3086 20.6758C26.1289 25.5781 30.1719 28.2539 34.9375 28.2539Z" fill="white"/>
</svg>
